<?xml version="1.0" encoding="UTF-8" standalone="no"?>
<svg xmlns="http://www.w3.org/2000/svg" viewBox="0 0 150 150">
  <path fill="#000" d="M66.25 13.363c-5.321 0-9.729 4.41-9.729 9.73v6.628H33.732c-6.595 0-12.03 5.431-12.03 12.027v.963c0 6.596 5.435 12.03 12.03 12.03h.366v75.306c0 7.162 5.888 13.053 13.05 13.053h55.715c7.162 0 13.051-5.891 13.051-13.053V54.74h.111c6.596 0 12.03-5.433 12.03-12.03v-.962c0-6.596-5.434-12.027-12.03-12.027H93.238v-6.627c0-5.322-4.41-9.73-9.732-9.73H66.25zm0 7.961h17.256c1.05 0 1.771.72 1.771 1.77v6.627H64.48v-6.627c0-1.05.721-1.77 1.771-1.77zM33.732 37.68h82.293c2.324 0 4.07 1.744 4.07 4.068v.963c0 2.324-1.746 4.07-4.07 4.07H33.732c-2.324 0-4.07-1.746-4.07-4.07v-.963c0-2.324 1.746-4.068 4.07-4.068zm8.325 17.06h65.898v75.307c0 2.89-2.201 5.094-5.092 5.094H47.148c-2.89 0-5.091-2.204-5.091-5.094V54.74zm13.978 6.936a3.98 3.98 0 0 0-3.92 4.035v58.459a3.98 3.98 0 1 0 7.96 0V65.71a3.98 3.98 0 0 0-4.04-4.034zm18.953 0a3.98 3.98 0 0 0-3.92 4.035v58.459a3.98 3.98 0 1 0 7.96 0V65.71a3.98 3.98 0 0 0-4.04-4.034zm18.953 0a3.98 3.98 0 0 0-3.92 4.035v58.459a3.98 3.98 0 1 0 7.96 0V65.71a3.98 3.98 0 0 0-4.04-4.034z" />
</svg>
