<?xml version="1.0" encoding="UTF-8" standalone="no"?>
<svg xmlns="http://www.w3.org/2000/svg" width="150" height="150">
  <path fill="#282828" d="M9.129 56.992v52.72h96.755v-21.77h6.616v-30.95zm19.82 5.199c4.337 0 7.626 1.211 9.867 3.635 2.26 2.423 3.544 5.903 3.854 10.44h-8.063c-.073-2.806-.51-4.737-1.312-5.794-.783-1.075-2.232-1.613-4.346-1.613-2.15 0-3.67.756-4.564 2.269-.893 1.494-1.366 3.963-1.421 7.407v7.516c0 3.954.437 6.669 1.312 8.145.892 1.475 2.414 2.213 4.564 2.213 2.114 0 3.571-.51 4.373-1.53.802-1.039 1.258-2.907 1.367-5.603h8.035c-.2 4.537-1.476 7.972-3.827 10.304-2.35 2.332-5.666 3.499-9.948 3.499-4.5 0-7.954-1.477-10.359-4.428-2.387-2.97-3.58-7.198-3.58-12.682v-6.697c0-5.466 1.239-9.675 3.717-12.626 2.478-2.97 5.922-4.455 10.331-4.455zm31.032 0c2.441 0 4.618.519 6.532 1.557 1.913 1.02 3.38 2.47 4.4 4.346 1.039 1.877 1.558 4.009 1.558 6.396h-8.008c0-1.859-.401-3.271-1.203-4.237-.783-.984-1.922-1.476-3.416-1.476-1.403 0-2.497.42-3.28 1.257-.784.82-1.175 1.932-1.175 3.335 0 1.093.437 2.086 1.312 2.979.874.875 2.423 1.786 4.646 2.733 3.881 1.403 6.697 3.125 8.446 5.166 1.767 2.04 2.65 4.637 2.65 7.79 0 3.461-1.102 6.167-3.306 8.117-2.205 1.95-5.203 2.925-8.993 2.925-2.569 0-4.91-.529-7.024-1.586-2.113-1.056-3.772-2.569-4.974-4.537-1.185-1.968-1.777-4.291-1.777-6.97h8.063c0 2.296.447 3.964 1.34 5.002.892 1.039 2.35 1.558 4.372 1.558 2.807 0 4.21-1.485 4.21-4.455 0-1.622-.42-2.842-1.258-3.662-.82-.838-2.323-1.704-4.51-2.597-3.99-1.512-6.86-3.28-8.609-5.302-1.749-2.04-2.624-4.446-2.624-7.216 0-3.352 1.185-6.04 3.553-8.062 2.387-2.04 5.412-3.061 9.075-3.061zm15.166.546h8.91l6.67 28.862 6.696-28.862h8.964l-11.48 39.795h-8.363z"/>
  <path fill="none" stroke="#000" stroke-width="8" d="M113.181 140.795H9.718V18.627h71.028l30.01 30.087v38.874"/>
  <path fill="none" stroke="#000" stroke-width="6.5" d="M126.037 85.195v27.635h16.032l-25.574 31.967-25.573-31.967h16.222V85.195z"/>
  <path fill="none" stroke="#000" stroke-width="8" d="M80.713 18.486v29.587h29.992"/>
</svg>
