<?xml version="1.0" encoding="UTF-8" standalone="no"?>
<!-- Created with Inkscape (http://www.inkscape.org/) -->

<svg
   xmlns:dc="http://purl.org/dc/elements/1.1/"
   xmlns:cc="http://creativecommons.org/ns#"
   xmlns:rdf="http://www.w3.org/1999/02/22-rdf-syntax-ns#"
   xmlns:svg="http://www.w3.org/2000/svg"
   xmlns="http://www.w3.org/2000/svg"
   xmlns:sodipodi="http://sodipodi.sourceforge.net/DTD/sodipodi-0.dtd"
   xmlns:inkscape="http://www.inkscape.org/namespaces/inkscape"
   width="32"
   height="32"
   viewBox="0 0 31.999999 31.999998"
   id="svg2"
   version="1.1"
   inkscape:version="0.91 r13725"
   sodipodi:docname="logo.svg"
   inkscape:export-filename="/tmp/test.png"
   inkscape:export-xdpi="135"
   inkscape:export-ydpi="135">
  <defs
     id="defs4" />
  <sodipodi:namedview
     id="base"
     pagecolor="#ffffff"
     bordercolor="#666666"
     borderopacity="1.0"
     inkscape:pageopacity="0.0"
     inkscape:pageshadow="2"
     inkscape:zoom="11.2"
     inkscape:cx="31.892159"
     inkscape:cy="3.3390539"
     inkscape:document-units="px"
     inkscape:current-layer="layer1"
     showgrid="true"
     units="px"
     inkscape:window-width="1920"
     inkscape:window-height="1059"
     inkscape:window-x="0"
     inkscape:window-y="0"
     inkscape:window-maximized="0">
    <inkscape:grid
       type="xygrid"
       id="grid4835"
       enabled="true" />
  </sodipodi:namedview>
  <metadata
     id="metadata7">
    <rdf:RDF>
      <cc:Work
         rdf:about="">
        <dc:format>image/svg+xml</dc:format>
        <dc:type
           rdf:resource="http://purl.org/dc/dcmitype/StillImage" />
        <dc:title />
      </cc:Work>
    </rdf:RDF>
  </metadata>
  <g
     inkscape:label="Low Detail"
     inkscape:groupmode="layer"
     id="layer1"
     transform="translate(0,-1020.3622)"
     style="display:none">
    <rect
       style="fill:#cddc39;fill-opacity:1;stroke:none;stroke-width:8;stroke-linecap:butt;stroke-linejoin:miter;stroke-miterlimit:4;stroke-dasharray:none;stroke-dashoffset:0;stroke-opacity:1"
       id="rect4264-0-2-5"
       width="27.999996"
       height="32.000015"
       x="1.9999998"
       y="1020.3622"
       ry="5.0000167" />
    <path
       style="fill:#33691e;fill-opacity:1;fill-rule:evenodd;stroke:#000000;stroke-width:0.01731686px;stroke-linecap:butt;stroke-linejoin:miter;stroke-opacity:1"
       d="m 8.6995907,1031.2405 c 0,0 1.8552363,-3.657 3.6117983,-5.4051 1.100844,-1.0956 2.772538,-1.9394 3.464633,-2.2117 0.626112,-0.2465 2.21204,-0.4441 2.40099,0.067 0.209898,0.5682 -0.470725,0.7553 -1.180656,1.1559 -1.514539,0.8546 -2.812895,2.0716 -4.140724,4.1302 -1.053224,1.6331 -2.378061,4.8868 -3.4114561,6.0385 -0.3605626,0.4019 -1.1414505,0.4648 -1.4991094,0.085 -0.7884627,-0.8387 -1.6698389,-2.3131 -1.9419605,-2.7831 -0.2721217,-0.4701 -1.0637452,-1.9296 -0.9895332,-2.647 0.074221,-0.7176 0.3958121,-1.039 0.7916309,-1.1133 0.3958121,-0.074 0.9895332,0.099 1.3606104,0.4454 0.3710694,0.3463 1.5337766,2.2387 1.5337766,2.2387 z"
       id="path4262-2-4"
       inkscape:connector-curvature="0"
       sodipodi:nodetypes="csssssssssssc" />
    <rect
       style="fill:#33691e;fill-opacity:1;stroke:none;stroke-width:8;stroke-linecap:butt;stroke-linejoin:miter;stroke-miterlimit:4;stroke-dasharray:none;stroke-dashoffset:0;stroke-opacity:1"
       id="rect4295-5-9-6-7-9-3-6"
       width="11.999999"
       height="2.0000162"
       x="14.999998"
       y="1028.3622"
       ry="0.75117409" />
    <path
       style="display:inline;fill:#33691e;fill-opacity:1;fill-rule:evenodd;stroke:#000000;stroke-width:0.01731686px;stroke-linecap:butt;stroke-linejoin:miter;stroke-opacity:1"
       d="m 8.6995903,1045.2405 c 0,0 1.8552357,-3.657 3.6117977,-5.4051 1.100844,-1.0956 2.772539,-1.9394 3.464634,-2.2117 0.626112,-0.2465 2.212039,-0.4441 2.400989,0.067 0.209898,0.5682 -0.470725,0.7553 -1.180655,1.1559 -1.514539,0.8546 -2.812896,2.0716 -4.140725,4.1302 -1.053224,1.6331 -2.378061,4.8868 -3.4114556,6.0385 -0.3605626,0.4019 -1.1414504,0.4648 -1.4991093,0.085 -0.7884626,-0.8387 -1.6698387,-2.3131 -1.9419602,-2.7831 -0.2721216,-0.4701 -1.063745,-1.9296 -0.9895331,-2.647 0.074221,-0.7176 0.3958121,-1.039 0.7916308,-1.1133 0.3958121,-0.074 0.9895331,0.099 1.3606102,0.4454 0.3710694,0.3463 1.5337765,2.2387 1.5337765,2.2387 z"
       id="path4262-2-4-4"
       inkscape:connector-curvature="0"
       sodipodi:nodetypes="csssssssssssc" />
    <rect
       style="display:inline;fill:#33691e;fill-opacity:1;stroke:none;stroke-width:8;stroke-linecap:butt;stroke-linejoin:miter;stroke-miterlimit:4;stroke-dasharray:none;stroke-dashoffset:0;stroke-opacity:1"
       id="rect4295-5-9-6-7-9-3-6-3"
       width="11.999998"
       height="2.000016"
       x="14.999998"
       y="1032.3622"
       ry="0.75117397" />
    <rect
       style="display:inline;fill:#33691e;fill-opacity:1;stroke:none;stroke-width:8;stroke-linecap:butt;stroke-linejoin:miter;stroke-miterlimit:4;stroke-dasharray:none;stroke-dashoffset:0;stroke-opacity:1"
       id="rect4295-5-9-6-7-9-3-6-0"
       width="11.999998"
       height="2.000016"
       x="14.999998"
       y="1046.3622"
       ry="0.75117397" />
    <rect
       style="display:inline;fill:#33691e;fill-opacity:1;stroke:none;stroke-width:8;stroke-linecap:butt;stroke-linejoin:miter;stroke-miterlimit:4;stroke-dasharray:none;stroke-dashoffset:0;stroke-opacity:1"
       id="rect4295-5-9-6-7-9-3-6-7"
       width="11.999998"
       height="2.000016"
       x="14.999998"
       y="1042.3622"
       ry="0.75117397" />
  </g>
  <g
     inkscape:groupmode="layer"
     id="layer2"
     inkscape:label="High Detail"
     style="display:inline"
     transform="translate(0,-676.66146)"
     sodipodi:insensitive="true">
    <rect
       style="fill:#cddc39;fill-opacity:1;stroke:none;stroke-width:8;stroke-linecap:butt;stroke-linejoin:miter;stroke-miterlimit:4;stroke-dasharray:none;stroke-dashoffset:0;stroke-opacity:1"
       id="rect4264-0-3"
       width="23.999998"
       height="28.000019"
       x="3.9999995"
       y="678.66144"
       ry="3.0769956" />
    <path
       style="fill:#33691e;fill-opacity:1;fill-rule:evenodd;stroke:#000000;stroke-width:0.01644683px;stroke-linecap:butt;stroke-linejoin:miter;stroke-opacity:1"
       d="m 19.952017,703.69709 c 0,0 1.76203,-3.47334 3.430337,-5.13375 1.04554,-1.04059 2.63324,-1.8418 3.29056,-2.10057 0.59466,-0.23412 2.10092,-0.42174 2.28038,0.0639 0.19934,0.53951 -0.44708,0.71745 -1.12135,1.09787 -1.43844,0.81158 -2.67157,1.96738 -3.93269,3.92269 -1.000297,1.55093 -2.258567,4.64118 -3.240057,5.73508 -0.34245,0.38167 -1.0841,0.44133 -1.42379,0.0801 -0.74885,-0.79648 -1.58594,-2.19683 -1.84439,-2.64324 -0.25845,-0.44642 -1.01031,-1.83265 -0.93982,-2.51402 0.0705,-0.68137 0.37593,-0.9868 0.75185,-1.05729 0.37593,-0.0705 0.93982,0.094 1.29225,0.42292 0.35244,0.32893 1.45672,2.12633 1.45672,2.12633 z"
       id="path4262-74"
       inkscape:connector-curvature="0"
       sodipodi:nodetypes="csssssssssssc" />
    <path
       style="fill:#33691e;fill-opacity:1;fill-rule:evenodd;stroke:#000000;stroke-width:0.00916633px;stroke-linecap:butt;stroke-linejoin:miter;stroke-opacity:1"
       d="m 8.958301,684.87426 c 0,0 0.9820295,-1.9358 1.911833,-2.8612 0.582719,-0.57995 1.467599,-1.0265 1.83393,-1.17072 0.331432,-0.13048 1.170913,-0.23504 1.270933,0.0357 0.111104,0.30068 -0.249175,0.39985 -0.624963,0.61188 -0.801693,0.45231 -1.488948,1.09648 -2.191813,2.18625 -0.557501,0.86438 -1.2587714,2.58666 -1.8057927,3.19633 -0.1908447,0.21272 -0.6041999,0.24597 -0.7935188,0.0447 -0.4173564,-0.44388 -0.8838992,-1.22435 -1.0279421,-1.47316 -0.1440326,-0.2488 -0.5630764,-1.02139 -0.523782,-1.40113 0.039305,-0.37976 0.2095068,-0.54998 0.4190237,-0.58927 0.2095168,-0.0393 0.5237921,0.0523 0.7202141,0.2357 0.1964221,0.18334 0.8118778,1.18508 0.8118778,1.18508 z"
       id="path4262-6-3-8-4"
       inkscape:connector-curvature="0"
       sodipodi:nodetypes="csssssssssssc" />
    <rect
       style="fill:#33691e;fill-opacity:1;stroke:none;stroke-width:8;stroke-linecap:butt;stroke-linejoin:miter;stroke-miterlimit:4;stroke-dasharray:none;stroke-dashoffset:0;stroke-opacity:1"
       id="rect4295-5-9-6-9-4"
       width="9.999999"
       height="1.4222232"
       x="15.499998"
       y="681.58551"
       ry="0.71111161" />
    <rect
       style="display:inline;fill:#33691e;fill-opacity:1;stroke:none;stroke-width:8;stroke-linecap:butt;stroke-linejoin:miter;stroke-miterlimit:4;stroke-dasharray:none;stroke-dashoffset:0;stroke-opacity:1"
       id="rect4295-5-9-6-9-4-6"
       width="9.9999981"
       height="1.4222231"
       x="15.499998"
       y="684.65442"
       ry="0.71111155" />
    <path
       style="display:inline;fill:#33691e;fill-opacity:1;fill-rule:evenodd;stroke:#000000;stroke-width:0.00916633px;stroke-linecap:butt;stroke-linejoin:miter;stroke-opacity:1"
       d="m 8.9583008,693.43008 c 0,0 0.9820291,-1.9358 1.9118332,-2.8612 0.582718,-0.57995 1.467598,-1.0265 1.833929,-1.17072 0.331432,-0.13048 1.170913,-0.23503 1.270933,0.0357 0.111104,0.30068 -0.249175,0.39985 -0.624963,0.61188 -0.801693,0.45231 -1.488948,1.09648 -2.191813,2.18625 -0.5575,0.86438 -1.2587711,2.58666 -1.805792,3.19633 -0.1908447,0.21272 -0.6041998,0.24597 -0.7935187,0.0447 -0.4173563,-0.44388 -0.883899,-1.22435 -1.0279419,-1.47316 -0.1440326,-0.2488 -0.5630764,-1.02139 -0.523782,-1.40113 0.039305,-0.37976 0.2095068,-0.54998 0.4190237,-0.58927 0.2095168,-0.0393 0.523792,0.0523 0.720214,0.2357 0.196422,0.18334 0.8118777,1.18508 0.8118777,1.18508 z"
       id="path4262-6-3-8-4-88"
       inkscape:connector-curvature="0"
       sodipodi:nodetypes="csssssssssssc" />
    <rect
       style="display:inline;fill:#33691e;fill-opacity:1;stroke:none;stroke-width:8;stroke-linecap:butt;stroke-linejoin:miter;stroke-miterlimit:4;stroke-dasharray:none;stroke-dashoffset:0;stroke-opacity:1"
       id="rect4295-5-9-6-9-4-4"
       width="9.9999981"
       height="1.4222231"
       x="15.499998"
       y="690.1413"
       ry="0.71111155" />
    <rect
       style="display:inline;fill:#33691e;fill-opacity:1;stroke:none;stroke-width:8;stroke-linecap:butt;stroke-linejoin:miter;stroke-miterlimit:4;stroke-dasharray:none;stroke-dashoffset:0;stroke-opacity:1"
       id="rect4295-5-9-6-9-4-6-3"
       width="9.9999971"
       height="1.422223"
       x="15.499998"
       y="693.21021"
       ry="0.71111149" />
  </g>
</svg>
